<svg width="150" height="150" viewBox="0 0 150 150" fill="none" xmlns="http://www.w3.org/2000/svg">
<path d="M136.388 46.4438C135.813 45.613 135.045 44.9339 134.15 44.4648C133.255 43.9956 132.26 43.7504 131.25 43.75H45.8313L38.6187 26.4375C37.6731 24.1577 36.0717 22.21 34.0177 20.8413C31.9636 19.4727 29.5495 18.7449 27.0813 18.75H12.5V31.25H27.0813L56.7312 102.406C57.2062 103.545 58.0074 104.517 59.0339 105.201C60.0604 105.885 61.2664 106.25 62.5 106.25H112.5C115.106 106.25 117.438 104.631 118.356 102.2L137.106 52.2C137.461 51.2539 137.58 50.236 137.455 49.2335C137.33 48.2309 136.964 47.2737 136.388 46.4438Z" fill="white"/>
<path d="M65.625 131.25C70.8027 131.25 75 127.053 75 121.875C75 116.697 70.8027 112.5 65.625 112.5C60.4473 112.5 56.25 116.697 56.25 121.875C56.25 127.053 60.4473 131.25 65.625 131.25Z" fill="white"/>
<path d="M109.375 131.25C114.553 131.25 118.75 127.053 118.75 121.875C118.75 116.697 114.553 112.5 109.375 112.5C104.197 112.5 100 116.697 100 121.875C100 127.053 104.197 131.25 109.375 131.25Z" fill="white"/>
</svg>
