<svg width="120" height="120" viewBox="0 0 120 120" fill="none" xmlns="http://www.w3.org/2000/svg">
<path d="M100 15H20C18.6739 15 17.4021 15.5268 16.4645 16.4645C15.5268 17.4021 15 18.6739 15 20V100C15 101.326 15.5268 102.598 16.4645 103.536C17.4021 104.473 18.6739 105 20 105H63.075V70.2H51.385V56.575H63.075V46.575C63.075 34.95 70.175 28.615 80.575 28.615C84.07 28.605 87.57 28.785 91.05 29.15V41.25H83.875C78.235 41.25 77.135 43.94 77.135 47.875V56.55H90.62L88.87 70.175H77.13V105H100C101.326 105 102.598 104.473 103.536 103.536C104.473 102.598 105 101.326 105 100V20C105 18.6739 104.473 17.4021 103.536 16.4645C102.598 15.5268 101.326 15 100 15Z" fill="white"/>
</svg>
