<svg width="578" height="158" viewBox="0 0 578 158" fill="none" xmlns="http://www.w3.org/2000/svg">
<rect width="25.2167" height="87.5211" transform="matrix(0.999514 0.0311645 -0.376237 0.926523 32.9287 15)" fill="#822727"/>
<rect width="25.6752" height="87.0751" transform="matrix(0.999158 0.0410261 -0.392892 0.919584 78.2109 16)" fill="#822727"/>
<path d="M144.666 35.6816L128.618 97H112.776L136.104 22.3516H145.999L144.666 35.6816ZM157.329 97L141.179 35.6816L139.692 22.3516H149.741L173.274 97H157.329ZM157.893 69.1606V81.6191H124.209V69.1606H157.893ZM213.008 22.3516H227.979V73.6211C227.979 79.3633 226.919 84.0459 224.8 87.6689C222.715 91.2578 219.827 93.8896 216.135 95.5645C212.444 97.2051 208.223 98.0254 203.472 98.0254C198.687 98.0254 194.431 97.2051 190.706 95.5645C186.98 93.8896 184.075 91.2578 181.99 87.6689C179.939 84.0459 178.914 79.3633 178.914 73.6211V22.3516H193.884V73.6211C193.884 76.8682 194.243 79.3633 194.961 81.1064C195.713 82.8496 196.79 84.0459 198.191 84.6953C199.626 85.3105 201.387 85.6182 203.472 85.6182C205.591 85.6182 207.334 85.3105 208.701 84.6953C210.103 84.0459 211.162 82.8496 211.88 81.1064C212.632 79.3633 213.008 76.8682 213.008 73.6211V22.3516ZM269.199 22.3516V97H254.28V22.3516H269.199ZM287.759 22.3516V34.8101H236.079V22.3516H287.759ZM347.488 53.8823V66.3408C347.488 71.6045 346.838 76.2188 345.54 80.1836C344.275 84.1143 342.463 87.4126 340.105 90.0786C337.781 92.7104 334.961 94.6929 331.646 96.0259C328.364 97.3589 324.724 98.0254 320.725 98.0254C316.726 98.0254 313.069 97.3589 309.753 96.0259C306.472 94.6929 303.635 92.7104 301.243 90.0786C298.884 87.4126 297.056 84.1143 295.757 80.1836C294.458 76.2188 293.809 71.6045 293.809 66.3408V53.8823C293.809 48.4819 294.441 43.7651 295.706 39.7319C296.97 35.6646 298.799 32.2808 301.191 29.5806C303.584 26.8462 306.421 24.7954 309.702 23.4282C312.983 22.0269 316.624 21.3262 320.623 21.3262C324.622 21.3262 328.262 22.0269 331.543 23.4282C334.824 24.7954 337.661 26.8462 340.054 29.5806C342.446 32.2808 344.275 35.6646 345.54 39.7319C346.838 43.7651 347.488 48.4819 347.488 53.8823ZM332.568 66.3408V53.7798C332.568 50.2251 332.312 47.2002 331.799 44.7051C331.287 42.1758 330.518 40.1079 329.492 38.5015C328.467 36.895 327.219 35.7158 325.75 34.9639C324.28 34.2119 322.571 33.8359 320.623 33.8359C318.674 33.8359 316.948 34.2119 315.444 34.9639C313.975 35.7158 312.727 36.895 311.702 38.5015C310.71 40.1079 309.958 42.1758 309.446 44.7051C308.967 47.2002 308.728 50.2251 308.728 53.7798V66.3408C308.728 69.7588 308.984 72.6812 309.497 75.1079C310.01 77.5347 310.779 79.5171 311.804 81.0552C312.83 82.5933 314.077 83.7383 315.547 84.4902C317.051 85.208 318.777 85.5669 320.725 85.5669C322.639 85.5669 324.331 85.208 325.801 84.4902C327.305 83.7383 328.552 82.5933 329.543 81.0552C330.535 79.5171 331.287 77.5347 331.799 75.1079C332.312 72.6812 332.568 69.7588 332.568 66.3408ZM358.459 22.3516H382.402C387.393 22.3516 391.648 23.2061 395.168 24.915C398.689 26.624 401.389 29.1533 403.269 32.5029C405.149 35.8525 406.089 39.9883 406.089 44.9102C406.089 48.9434 405.542 52.3955 404.448 55.2666C403.354 58.1035 401.799 60.479 399.783 62.3931C397.766 64.2729 395.356 65.7769 392.554 66.9048L387.991 69.6221H368.56L368.508 57.1636H381.992C384.043 57.1636 385.735 56.7192 387.068 55.8306C388.435 54.9077 389.443 53.626 390.093 51.9854C390.776 50.3105 391.118 48.3623 391.118 46.1406C391.118 43.7822 390.811 41.7656 390.195 40.0908C389.614 38.3818 388.674 37.083 387.375 36.1943C386.111 35.2715 384.453 34.8101 382.402 34.8101H373.481V97H358.459V22.3516ZM392.349 97L378.66 63.7261L394.399 63.6748L408.396 96.2822V97H392.349ZM459.358 84.5928V97H426.904V84.5928H459.358ZM431.57 22.3516V97H416.548V22.3516H431.57ZM455 52.6006V64.6489H426.904V52.6006H455ZM459.255 22.3516V34.8101H426.904V22.3516H459.255ZM503.706 72.1343H518.625C518.42 77.7397 517.292 82.4736 515.242 86.3359C513.191 90.1641 510.269 93.0693 506.475 95.0518C502.715 97.0342 498.169 98.0254 492.837 98.0254C488.701 98.0254 485.027 97.3418 481.814 95.9746C478.601 94.5732 475.867 92.5225 473.611 89.8223C471.355 87.1221 469.646 83.7896 468.484 79.8247C467.356 75.8257 466.792 71.2285 466.792 66.0332V53.3696C466.792 48.1743 467.39 43.5771 468.586 39.5781C469.817 35.5791 471.56 32.2295 473.816 29.5293C476.106 26.7949 478.857 24.7441 482.07 23.377C485.317 21.9756 488.975 21.2749 493.042 21.2749C498.477 21.2749 503.022 22.3003 506.68 24.3511C510.337 26.4019 513.157 29.3926 515.139 33.3232C517.156 37.2197 518.369 41.9878 518.779 47.6274H503.809C503.706 44.0728 503.296 41.2871 502.578 39.2705C501.895 37.2197 500.801 35.7842 499.297 34.9639C497.793 34.1094 495.708 33.6821 493.042 33.6821C491.06 33.6821 489.351 34.041 487.915 34.7588C486.479 35.4424 485.3 36.5532 484.377 38.0913C483.455 39.6294 482.771 41.646 482.327 44.1411C481.917 46.6362 481.711 49.6782 481.711 53.2671V66.0332C481.711 69.5537 481.899 72.5615 482.275 75.0566C482.651 77.5176 483.25 79.5342 484.07 81.1064C484.89 82.6787 486.001 83.8237 487.402 84.5415C488.838 85.2593 490.649 85.6182 492.837 85.6182C495.366 85.6182 497.4 85.2422 498.938 84.4902C500.51 83.7383 501.672 82.3882 502.424 80.4399C503.176 78.4917 503.604 75.7231 503.706 72.1343ZM556.206 22.3516V97H541.287V22.3516H556.206ZM574.766 22.3516V34.8101H523.086V22.3516H574.766Z" fill="white"/>
<path d="M14.7656 144.057H18.4277C18.3105 145.453 17.9199 146.698 17.2559 147.792C16.5918 148.876 15.6592 149.73 14.458 150.355C13.2568 150.98 11.7969 151.293 10.0781 151.293C8.75977 151.293 7.57324 151.059 6.51855 150.59C5.46387 150.111 4.56055 149.438 3.80859 148.568C3.05664 147.689 2.48047 146.63 2.08008 145.39C1.68945 144.149 1.49414 142.763 1.49414 141.229V139.457C1.49414 137.924 1.69434 136.537 2.09473 135.297C2.50488 134.057 3.09082 132.997 3.85254 132.118C4.61426 131.229 5.52734 130.551 6.5918 130.082C7.66602 129.613 8.87207 129.379 10.21 129.379C11.9092 129.379 13.3447 129.691 14.5166 130.316C15.6885 130.941 16.5967 131.806 17.2412 132.909C17.8955 134.013 18.2959 135.277 18.4424 136.703H14.7803C14.6826 135.785 14.4678 134.999 14.1357 134.345C13.8135 133.69 13.335 133.192 12.7002 132.851C12.0654 132.499 11.2354 132.323 10.21 132.323C9.37012 132.323 8.6377 132.479 8.0127 132.792C7.3877 133.104 6.86523 133.563 6.44531 134.169C6.02539 134.774 5.70801 135.521 5.49316 136.41C5.28809 137.289 5.18555 138.295 5.18555 139.428V141.229C5.18555 142.304 5.27832 143.28 5.46387 144.159C5.65918 145.028 5.95215 145.775 6.34277 146.4C6.74316 147.025 7.25098 147.509 7.86621 147.851C8.48145 148.192 9.21875 148.363 10.0781 148.363C11.123 148.363 11.9678 148.197 12.6123 147.865C13.2666 147.533 13.7598 147.05 14.0918 146.415C14.4336 145.771 14.6582 144.984 14.7656 144.057ZM30.0732 132.514L23.7012 151H19.8486L27.876 129.672H30.3369L30.0732 132.514ZM35.4053 151L29.0186 132.514L28.7402 129.672H31.2158L39.2725 151H35.4053ZM35.0977 143.09V146.005H23.4961V143.09H35.0977ZM47.8564 151H43.3008L43.3301 148.085H47.8564C49.1748 148.085 50.2783 147.797 51.167 147.221C52.0654 146.645 52.7393 145.819 53.1885 144.745C53.6475 143.671 53.877 142.392 53.877 140.907V139.75C53.877 138.598 53.7451 137.577 53.4814 136.688C53.2275 135.8 52.8467 135.053 52.3389 134.447C51.8408 133.842 51.2256 133.383 50.4932 133.07C49.7705 132.758 48.9355 132.602 47.9883 132.602H43.2129V129.672H47.9883C49.4043 129.672 50.6982 129.911 51.8701 130.39C53.042 130.858 54.0527 131.537 54.9023 132.426C55.7617 133.314 56.4209 134.379 56.8799 135.619C57.3389 136.859 57.5684 138.246 57.5684 139.779V140.907C57.5684 142.44 57.3389 143.827 56.8799 145.067C56.4209 146.308 55.7617 147.372 54.9023 148.261C54.043 149.14 53.0176 149.818 51.8262 150.297C50.6445 150.766 49.3213 151 47.8564 151ZM45.3369 129.672V151H41.6602V129.672H45.3369ZM69.2432 132.514L62.8711 151H59.0186L67.0459 129.672H69.5068L69.2432 132.514ZM74.5752 151L68.1885 132.514L67.9102 129.672H70.3857L78.4424 151H74.5752ZM74.2676 143.09V146.005H62.666V143.09H74.2676ZM96.4014 143.046H90.8496V140.131H96.4014C97.3682 140.131 98.1494 139.975 98.7451 139.662C99.3408 139.35 99.7754 138.92 100.049 138.373C100.332 137.816 100.474 137.182 100.474 136.469C100.474 135.795 100.332 135.165 100.049 134.579C99.7754 133.983 99.3408 133.505 98.7451 133.144C98.1494 132.782 97.3682 132.602 96.4014 132.602H91.9775V151H88.3008V129.672H96.4014C98.0518 129.672 99.4531 129.965 100.605 130.551C101.768 131.127 102.651 131.928 103.257 132.953C103.862 133.969 104.165 135.131 104.165 136.439C104.165 137.816 103.862 138.998 103.257 139.984C102.651 140.971 101.768 141.728 100.605 142.255C99.4531 142.782 98.0518 143.046 96.4014 143.046ZM111.387 129.672V151H107.71V129.672H111.387ZM129.917 148.085V151H118.594V148.085H129.917ZM119.634 129.672V151H115.957V129.672H119.634ZM128.438 138.578V141.449H118.594V138.578H128.438ZM129.844 129.672V132.602H118.594V129.672H129.844ZM147.832 148.085V151H133.022V148.085H147.832ZM147.495 131.942L134.385 151H131.924V148.671L145.078 129.672H147.495V131.942ZM146.133 129.672V132.602H132.012V129.672H146.133ZM159.536 132.514L153.164 151H149.312L157.339 129.672H159.8L159.536 132.514ZM164.868 151L158.481 132.514L158.203 129.672H160.679L168.735 151H164.868ZM164.561 143.09V146.005H152.959V143.09H164.561ZM191.191 144.057H194.854C194.736 145.453 194.346 146.698 193.682 147.792C193.018 148.876 192.085 149.73 190.884 150.355C189.683 150.98 188.223 151.293 186.504 151.293C185.186 151.293 183.999 151.059 182.944 150.59C181.89 150.111 180.986 149.438 180.234 148.568C179.482 147.689 178.906 146.63 178.506 145.39C178.115 144.149 177.92 142.763 177.92 141.229V139.457C177.92 137.924 178.12 136.537 178.521 135.297C178.931 134.057 179.517 132.997 180.278 132.118C181.04 131.229 181.953 130.551 183.018 130.082C184.092 129.613 185.298 129.379 186.636 129.379C188.335 129.379 189.771 129.691 190.942 130.316C192.114 130.941 193.022 131.806 193.667 132.909C194.321 134.013 194.722 135.277 194.868 136.703H191.206C191.108 135.785 190.894 134.999 190.562 134.345C190.239 133.69 189.761 133.192 189.126 132.851C188.491 132.499 187.661 132.323 186.636 132.323C185.796 132.323 185.063 132.479 184.438 132.792C183.813 133.104 183.291 133.563 182.871 134.169C182.451 134.774 182.134 135.521 181.919 136.41C181.714 137.289 181.611 138.295 181.611 139.428V141.229C181.611 142.304 181.704 143.28 181.89 144.159C182.085 145.028 182.378 145.775 182.769 146.4C183.169 147.025 183.677 147.509 184.292 147.851C184.907 148.192 185.645 148.363 186.504 148.363C187.549 148.363 188.394 148.197 189.038 147.865C189.692 147.533 190.186 147.05 190.518 146.415C190.859 145.771 191.084 144.984 191.191 144.057ZM210.161 129.672H213.823V143.925C213.823 145.546 213.472 146.903 212.769 147.997C212.065 149.091 211.108 149.916 209.897 150.473C208.696 151.02 207.354 151.293 205.869 151.293C204.336 151.293 202.969 151.02 201.768 150.473C200.566 149.916 199.619 149.091 198.926 147.997C198.242 146.903 197.9 145.546 197.9 143.925V129.672H201.562V143.925C201.562 144.95 201.738 145.795 202.09 146.459C202.441 147.113 202.939 147.597 203.584 147.909C204.229 148.222 204.99 148.378 205.869 148.378C206.748 148.378 207.505 148.222 208.14 147.909C208.784 147.597 209.282 147.113 209.634 146.459C209.985 145.795 210.161 144.95 210.161 143.925V129.672ZM231.782 148.085V151H220.459V148.085H231.782ZM221.499 129.672V151H217.822V129.672H221.499ZM230.303 138.578V141.449H220.459V138.578H230.303ZM231.709 129.672V132.602H220.459V129.672H231.709ZM251.704 129.672V151H248.027L238.462 135.722V151H234.785V129.672H238.462L248.057 144.979V129.672H251.704ZM264.419 129.672V151H260.771V129.672H264.419ZM271.113 129.672V132.602H254.136V129.672H271.113ZM280.825 132.514L274.453 151H270.601L278.628 129.672H281.089L280.825 132.514ZM286.157 151L279.771 132.514L279.492 129.672H281.968L290.024 151H286.157ZM285.85 143.09V146.005H274.248V143.09H285.85Z" fill="#813030"/>
</svg>
