<svg width="1272" height="686" viewBox="0 0 1272 686" fill="none" xmlns="http://www.w3.org/2000/svg">
<rect width="1272" height="686" rx="30" fill="#9C9892"/>
<rect width="25.2167" height="87.5211" transform="matrix(0.999514 0.0311645 -0.376237 0.926523 117.93 83)" fill="#822727"/>
<rect width="25.6752" height="87.0751" transform="matrix(0.999158 0.0410261 -0.392892 0.919584 163.211 84)" fill="#822727"/>
<path d="M229.663 103.682L213.615 165H197.773L221.101 90.3516H230.996L229.663 103.682ZM242.326 165L226.176 103.682L224.689 90.3516H234.738L258.271 165H242.326ZM242.89 137.161V149.619H209.206V137.161H242.89ZM298.005 90.3516H312.976V141.621C312.976 147.363 311.916 152.046 309.797 155.669C307.712 159.258 304.824 161.89 301.132 163.564C297.441 165.205 293.22 166.025 288.469 166.025C283.684 166.025 279.428 165.205 275.703 163.564C271.977 161.89 269.072 159.258 266.987 155.669C264.936 152.046 263.911 147.363 263.911 141.621V90.3516H278.881V141.621C278.881 144.868 279.24 147.363 279.958 149.106C280.71 150.85 281.787 152.046 283.188 152.695C284.624 153.311 286.384 153.618 288.469 153.618C290.588 153.618 292.331 153.311 293.698 152.695C295.1 152.046 296.159 150.85 296.877 149.106C297.629 147.363 298.005 144.868 298.005 141.621V90.3516ZM354.196 90.3516V165H339.277V90.3516H354.196ZM372.756 90.3516V102.81H321.076V90.3516H372.756ZM432.485 121.882V134.341C432.485 139.604 431.835 144.219 430.537 148.184C429.272 152.114 427.46 155.413 425.102 158.079C422.778 160.71 419.958 162.693 416.643 164.026C413.361 165.359 409.721 166.025 405.722 166.025C401.723 166.025 398.066 165.359 394.75 164.026C391.469 162.693 388.632 160.71 386.24 158.079C383.881 155.413 382.053 152.114 380.754 148.184C379.455 144.219 378.806 139.604 378.806 134.341V121.882C378.806 116.482 379.438 111.765 380.703 107.732C381.967 103.665 383.796 100.281 386.188 97.5806C388.581 94.8462 391.418 92.7954 394.699 91.4282C397.98 90.0269 401.621 89.3262 405.62 89.3262C409.619 89.3262 413.259 90.0269 416.54 91.4282C419.821 92.7954 422.658 94.8462 425.051 97.5806C427.443 100.281 429.272 103.665 430.537 107.732C431.835 111.765 432.485 116.482 432.485 121.882ZM417.565 134.341V121.78C417.565 118.225 417.309 115.2 416.796 112.705C416.284 110.176 415.515 108.108 414.489 106.501C413.464 104.895 412.216 103.716 410.747 102.964C409.277 102.212 407.568 101.836 405.62 101.836C403.671 101.836 401.945 102.212 400.441 102.964C398.972 103.716 397.724 104.895 396.699 106.501C395.708 108.108 394.956 110.176 394.443 112.705C393.964 115.2 393.725 118.225 393.725 121.78V134.341C393.725 137.759 393.981 140.681 394.494 143.108C395.007 145.535 395.776 147.517 396.801 149.055C397.827 150.593 399.074 151.738 400.544 152.49C402.048 153.208 403.774 153.567 405.722 153.567C407.636 153.567 409.328 153.208 410.798 152.49C412.302 151.738 413.549 150.593 414.541 149.055C415.532 147.517 416.284 145.535 416.796 143.108C417.309 140.681 417.565 137.759 417.565 134.341ZM443.457 90.3516H467.399C472.39 90.3516 476.645 91.2061 480.166 92.915C483.686 94.624 486.386 97.1533 488.266 100.503C490.146 103.853 491.086 107.988 491.086 112.91C491.086 116.943 490.539 120.396 489.445 123.267C488.352 126.104 486.796 128.479 484.78 130.393C482.763 132.273 480.354 133.777 477.551 134.905L472.988 137.622H453.557L453.505 125.164H466.989C469.04 125.164 470.732 124.719 472.065 123.831C473.432 122.908 474.44 121.626 475.09 119.985C475.773 118.311 476.115 116.362 476.115 114.141C476.115 111.782 475.808 109.766 475.192 108.091C474.611 106.382 473.671 105.083 472.373 104.194C471.108 103.271 469.45 102.81 467.399 102.81H458.479V165H443.457V90.3516ZM477.346 165L463.657 131.726L479.396 131.675L493.393 164.282V165H477.346ZM544.355 152.593V165H511.901V152.593H544.355ZM516.567 90.3516V165H501.545V90.3516H516.567ZM539.997 120.601V132.649H511.901V120.601H539.997ZM544.252 90.3516V102.81H511.901V90.3516H544.252ZM588.703 140.134H603.623C603.417 145.74 602.29 150.474 600.239 154.336C598.188 158.164 595.266 161.069 591.472 163.052C587.712 165.034 583.166 166.025 577.834 166.025C573.698 166.025 570.024 165.342 566.811 163.975C563.598 162.573 560.864 160.522 558.608 157.822C556.352 155.122 554.643 151.79 553.481 147.825C552.353 143.826 551.789 139.229 551.789 134.033V121.37C551.789 116.174 552.387 111.577 553.583 107.578C554.814 103.579 556.557 100.229 558.813 97.5293C561.103 94.7949 563.854 92.7441 567.067 91.377C570.314 89.9756 573.972 89.2749 578.039 89.2749C583.474 89.2749 588.02 90.3003 591.677 92.3511C595.334 94.4019 598.154 97.3926 600.136 101.323C602.153 105.22 603.366 109.988 603.776 115.627H588.806C588.703 112.073 588.293 109.287 587.575 107.271C586.892 105.22 585.798 103.784 584.294 102.964C582.79 102.109 580.705 101.682 578.039 101.682C576.057 101.682 574.348 102.041 572.912 102.759C571.477 103.442 570.297 104.553 569.375 106.091C568.452 107.629 567.768 109.646 567.324 112.141C566.914 114.636 566.708 117.678 566.708 121.267V134.033C566.708 137.554 566.896 140.562 567.272 143.057C567.648 145.518 568.247 147.534 569.067 149.106C569.887 150.679 570.998 151.824 572.399 152.542C573.835 153.259 575.646 153.618 577.834 153.618C580.363 153.618 582.397 153.242 583.935 152.49C585.507 151.738 586.669 150.388 587.421 148.44C588.173 146.492 588.601 143.723 588.703 140.134ZM641.203 90.3516V165H626.284V90.3516H641.203ZM659.763 90.3516V102.81H608.083V90.3516H659.763Z" fill="white"/>
<path d="M99.7656 212.057H103.428C103.311 213.453 102.92 214.698 102.256 215.792C101.592 216.876 100.659 217.73 99.458 218.355C98.2568 218.98 96.7969 219.293 95.0781 219.293C93.7598 219.293 92.5732 219.059 91.5186 218.59C90.4639 218.111 89.5605 217.438 88.8086 216.568C88.0566 215.689 87.4805 214.63 87.0801 213.39C86.6895 212.149 86.4941 210.763 86.4941 209.229V207.457C86.4941 205.924 86.6943 204.537 87.0947 203.297C87.5049 202.057 88.0908 200.997 88.8525 200.118C89.6143 199.229 90.5273 198.551 91.5918 198.082C92.666 197.613 93.8721 197.379 95.21 197.379C96.9092 197.379 98.3447 197.691 99.5166 198.316C100.688 198.941 101.597 199.806 102.241 200.909C102.896 202.013 103.296 203.277 103.442 204.703H99.7803C99.6826 203.785 99.4678 202.999 99.1357 202.345C98.8135 201.69 98.335 201.192 97.7002 200.851C97.0654 200.499 96.2354 200.323 95.21 200.323C94.3701 200.323 93.6377 200.479 93.0127 200.792C92.3877 201.104 91.8652 201.563 91.4453 202.169C91.0254 202.774 90.708 203.521 90.4932 204.41C90.2881 205.289 90.1855 206.295 90.1855 207.428V209.229C90.1855 210.304 90.2783 211.28 90.4639 212.159C90.6592 213.028 90.9521 213.775 91.3428 214.4C91.7432 215.025 92.251 215.509 92.8662 215.851C93.4814 216.192 94.2188 216.363 95.0781 216.363C96.123 216.363 96.9678 216.197 97.6123 215.865C98.2666 215.533 98.7598 215.05 99.0918 214.415C99.4336 213.771 99.6582 212.984 99.7656 212.057ZM115.073 200.514L108.701 219H104.849L112.876 197.672H115.337L115.073 200.514ZM120.405 219L114.019 200.514L113.74 197.672H116.216L124.272 219H120.405ZM120.098 211.09V214.005H108.496V211.09H120.098ZM132.856 219H128.301L128.33 216.085H132.856C134.175 216.085 135.278 215.797 136.167 215.221C137.065 214.645 137.739 213.819 138.188 212.745C138.647 211.671 138.877 210.392 138.877 208.907V207.75C138.877 206.598 138.745 205.577 138.481 204.688C138.228 203.8 137.847 203.053 137.339 202.447C136.841 201.842 136.226 201.383 135.493 201.07C134.771 200.758 133.936 200.602 132.988 200.602H128.213V197.672H132.988C134.404 197.672 135.698 197.911 136.87 198.39C138.042 198.858 139.053 199.537 139.902 200.426C140.762 201.314 141.421 202.379 141.88 203.619C142.339 204.859 142.568 206.246 142.568 207.779V208.907C142.568 210.44 142.339 211.827 141.88 213.067C141.421 214.308 140.762 215.372 139.902 216.261C139.043 217.14 138.018 217.818 136.826 218.297C135.645 218.766 134.321 219 132.856 219ZM130.337 197.672V219H126.66V197.672H130.337ZM154.243 200.514L147.871 219H144.019L152.046 197.672H154.507L154.243 200.514ZM159.575 219L153.188 200.514L152.91 197.672H155.386L163.442 219H159.575ZM159.268 211.09V214.005H147.666V211.09H159.268ZM181.401 211.046H175.85V208.131H181.401C182.368 208.131 183.149 207.975 183.745 207.662C184.341 207.35 184.775 206.92 185.049 206.373C185.332 205.816 185.474 205.182 185.474 204.469C185.474 203.795 185.332 203.165 185.049 202.579C184.775 201.983 184.341 201.505 183.745 201.144C183.149 200.782 182.368 200.602 181.401 200.602H176.978V219H173.301V197.672H181.401C183.052 197.672 184.453 197.965 185.605 198.551C186.768 199.127 187.651 199.928 188.257 200.953C188.862 201.969 189.165 203.131 189.165 204.439C189.165 205.816 188.862 206.998 188.257 207.984C187.651 208.971 186.768 209.728 185.605 210.255C184.453 210.782 183.052 211.046 181.401 211.046ZM196.387 197.672V219H192.71V197.672H196.387ZM214.917 216.085V219H203.594V216.085H214.917ZM204.634 197.672V219H200.957V197.672H204.634ZM213.438 206.578V209.449H203.594V206.578H213.438ZM214.844 197.672V200.602H203.594V197.672H214.844ZM232.832 216.085V219H218.022V216.085H232.832ZM232.495 199.942L219.385 219H216.924V216.671L230.078 197.672H232.495V199.942ZM231.133 197.672V200.602H217.012V197.672H231.133ZM244.536 200.514L238.164 219H234.312L242.339 197.672H244.8L244.536 200.514ZM249.868 219L243.481 200.514L243.203 197.672H245.679L253.735 219H249.868ZM249.561 211.09V214.005H237.959V211.09H249.561ZM276.191 212.057H279.854C279.736 213.453 279.346 214.698 278.682 215.792C278.018 216.876 277.085 217.73 275.884 218.355C274.683 218.98 273.223 219.293 271.504 219.293C270.186 219.293 268.999 219.059 267.944 218.59C266.89 218.111 265.986 217.438 265.234 216.568C264.482 215.689 263.906 214.63 263.506 213.39C263.115 212.149 262.92 210.763 262.92 209.229V207.457C262.92 205.924 263.12 204.537 263.521 203.297C263.931 202.057 264.517 200.997 265.278 200.118C266.04 199.229 266.953 198.551 268.018 198.082C269.092 197.613 270.298 197.379 271.636 197.379C273.335 197.379 274.771 197.691 275.942 198.316C277.114 198.941 278.022 199.806 278.667 200.909C279.321 202.013 279.722 203.277 279.868 204.703H276.206C276.108 203.785 275.894 202.999 275.562 202.345C275.239 201.69 274.761 201.192 274.126 200.851C273.491 200.499 272.661 200.323 271.636 200.323C270.796 200.323 270.063 200.479 269.438 200.792C268.813 201.104 268.291 201.563 267.871 202.169C267.451 202.774 267.134 203.521 266.919 204.41C266.714 205.289 266.611 206.295 266.611 207.428V209.229C266.611 210.304 266.704 211.28 266.89 212.159C267.085 213.028 267.378 213.775 267.769 214.4C268.169 215.025 268.677 215.509 269.292 215.851C269.907 216.192 270.645 216.363 271.504 216.363C272.549 216.363 273.394 216.197 274.038 215.865C274.692 215.533 275.186 215.05 275.518 214.415C275.859 213.771 276.084 212.984 276.191 212.057ZM295.161 197.672H298.823V211.925C298.823 213.546 298.472 214.903 297.769 215.997C297.065 217.091 296.108 217.916 294.897 218.473C293.696 219.02 292.354 219.293 290.869 219.293C289.336 219.293 287.969 219.02 286.768 218.473C285.566 217.916 284.619 217.091 283.926 215.997C283.242 214.903 282.9 213.546 282.9 211.925V197.672H286.562V211.925C286.562 212.95 286.738 213.795 287.09 214.459C287.441 215.113 287.939 215.597 288.584 215.909C289.229 216.222 289.99 216.378 290.869 216.378C291.748 216.378 292.505 216.222 293.14 215.909C293.784 215.597 294.282 215.113 294.634 214.459C294.985 213.795 295.161 212.95 295.161 211.925V197.672ZM316.782 216.085V219H305.459V216.085H316.782ZM306.499 197.672V219H302.822V197.672H306.499ZM315.303 206.578V209.449H305.459V206.578H315.303ZM316.709 197.672V200.602H305.459V197.672H316.709ZM336.704 197.672V219H333.027L323.462 203.722V219H319.785V197.672H323.462L333.057 212.979V197.672H336.704ZM349.419 197.672V219H345.771V197.672H349.419ZM356.113 197.672V200.602H339.136V197.672H356.113ZM365.825 200.514L359.453 219H355.601L363.628 197.672H366.089L365.825 200.514ZM371.157 219L364.771 200.514L364.492 197.672H366.968L375.024 219H371.157ZM370.85 211.09V214.005H359.248V211.09H370.85Z" fill="#813030"/>
<rect x="85" y="377" width="958" height="41" rx="20" fill="white"/>
<rect x="85" y="469" width="958" height="41" rx="20" fill="white"/>
</svg>
