<svg width="1272" height="686" viewBox="0 0 1272 686" fill="none" xmlns="http://www.w3.org/2000/svg">
<rect width="1272" height="686" rx="30" fill="#131313"/>
<rect width="25.2167" height="87.5211" transform="matrix(0.999514 0.0311645 -0.376237 0.926523 121.93 83)" fill="#822727"/>
<rect width="25.6752" height="87.0751" transform="matrix(0.999158 0.0410261 -0.392892 0.919584 167.211 84)" fill="#822727"/>
<path d="M233.663 103.682L217.615 165H201.773L225.101 90.3516H234.996L233.663 103.682ZM246.326 165L230.176 103.682L228.689 90.3516H238.738L262.271 165H246.326ZM246.89 137.161V149.619H213.206V137.161H246.89ZM302.005 90.3516H316.976V141.621C316.976 147.363 315.916 152.046 313.797 155.669C311.712 159.258 308.824 161.89 305.132 163.564C301.441 165.205 297.22 166.025 292.469 166.025C287.684 166.025 283.428 165.205 279.703 163.564C275.977 161.89 273.072 159.258 270.987 155.669C268.936 152.046 267.911 147.363 267.911 141.621V90.3516H282.881V141.621C282.881 144.868 283.24 147.363 283.958 149.106C284.71 150.85 285.787 152.046 287.188 152.695C288.624 153.311 290.384 153.618 292.469 153.618C294.588 153.618 296.331 153.311 297.698 152.695C299.1 152.046 300.159 150.85 300.877 149.106C301.629 147.363 302.005 144.868 302.005 141.621V90.3516ZM358.196 90.3516V165H343.277V90.3516H358.196ZM376.756 90.3516V102.81H325.076V90.3516H376.756ZM436.485 121.882V134.341C436.485 139.604 435.835 144.219 434.537 148.184C433.272 152.114 431.46 155.413 429.102 158.079C426.778 160.71 423.958 162.693 420.643 164.026C417.361 165.359 413.721 166.025 409.722 166.025C405.723 166.025 402.066 165.359 398.75 164.026C395.469 162.693 392.632 160.71 390.24 158.079C387.881 155.413 386.053 152.114 384.754 148.184C383.455 144.219 382.806 139.604 382.806 134.341V121.882C382.806 116.482 383.438 111.765 384.703 107.732C385.967 103.665 387.796 100.281 390.188 97.5806C392.581 94.8462 395.418 92.7954 398.699 91.4282C401.98 90.0269 405.621 89.3262 409.62 89.3262C413.619 89.3262 417.259 90.0269 420.54 91.4282C423.821 92.7954 426.658 94.8462 429.051 97.5806C431.443 100.281 433.272 103.665 434.537 107.732C435.835 111.765 436.485 116.482 436.485 121.882ZM421.565 134.341V121.78C421.565 118.225 421.309 115.2 420.796 112.705C420.284 110.176 419.515 108.108 418.489 106.501C417.464 104.895 416.216 103.716 414.747 102.964C413.277 102.212 411.568 101.836 409.62 101.836C407.671 101.836 405.945 102.212 404.441 102.964C402.972 103.716 401.724 104.895 400.699 106.501C399.708 108.108 398.956 110.176 398.443 112.705C397.964 115.2 397.725 118.225 397.725 121.78V134.341C397.725 137.759 397.981 140.681 398.494 143.108C399.007 145.535 399.776 147.517 400.801 149.055C401.827 150.593 403.074 151.738 404.544 152.49C406.048 153.208 407.774 153.567 409.722 153.567C411.636 153.567 413.328 153.208 414.798 152.49C416.302 151.738 417.549 150.593 418.541 149.055C419.532 147.517 420.284 145.535 420.796 143.108C421.309 140.681 421.565 137.759 421.565 134.341ZM447.457 90.3516H471.399C476.39 90.3516 480.645 91.2061 484.166 92.915C487.686 94.624 490.386 97.1533 492.266 100.503C494.146 103.853 495.086 107.988 495.086 112.91C495.086 116.943 494.539 120.396 493.445 123.267C492.352 126.104 490.796 128.479 488.78 130.393C486.763 132.273 484.354 133.777 481.551 134.905L476.988 137.622H457.557L457.505 125.164H470.989C473.04 125.164 474.732 124.719 476.065 123.831C477.432 122.908 478.44 121.626 479.09 119.985C479.773 118.311 480.115 116.362 480.115 114.141C480.115 111.782 479.808 109.766 479.192 108.091C478.611 106.382 477.671 105.083 476.373 104.194C475.108 103.271 473.45 102.81 471.399 102.81H462.479V165H447.457V90.3516ZM481.346 165L467.657 131.726L483.396 131.675L497.393 164.282V165H481.346ZM548.355 152.593V165H515.901V152.593H548.355ZM520.567 90.3516V165H505.545V90.3516H520.567ZM543.997 120.601V132.649H515.901V120.601H543.997ZM548.252 90.3516V102.81H515.901V90.3516H548.252ZM592.703 140.134H607.623C607.417 145.74 606.29 150.474 604.239 154.336C602.188 158.164 599.266 161.069 595.472 163.052C591.712 165.034 587.166 166.025 581.834 166.025C577.698 166.025 574.024 165.342 570.811 163.975C567.598 162.573 564.864 160.522 562.608 157.822C560.352 155.122 558.643 151.79 557.481 147.825C556.353 143.826 555.789 139.229 555.789 134.033V121.37C555.789 116.174 556.387 111.577 557.583 107.578C558.814 103.579 560.557 100.229 562.813 97.5293C565.103 94.7949 567.854 92.7441 571.067 91.377C574.314 89.9756 577.972 89.2749 582.039 89.2749C587.474 89.2749 592.02 90.3003 595.677 92.3511C599.334 94.4019 602.154 97.3926 604.136 101.323C606.153 105.22 607.366 109.988 607.776 115.627H592.806C592.703 112.073 592.293 109.287 591.575 107.271C590.892 105.22 589.798 103.784 588.294 102.964C586.79 102.109 584.705 101.682 582.039 101.682C580.057 101.682 578.348 102.041 576.912 102.759C575.477 103.442 574.297 104.553 573.375 106.091C572.452 107.629 571.768 109.646 571.324 112.141C570.914 114.636 570.708 117.678 570.708 121.267V134.033C570.708 137.554 570.896 140.562 571.272 143.057C571.648 145.518 572.247 147.534 573.067 149.106C573.887 150.679 574.998 151.824 576.399 152.542C577.835 153.259 579.646 153.618 581.834 153.618C584.363 153.618 586.397 153.242 587.935 152.49C589.507 151.738 590.669 150.388 591.421 148.44C592.173 146.492 592.601 143.723 592.703 140.134ZM645.203 90.3516V165H630.284V90.3516H645.203ZM663.763 90.3516V102.81H612.083V90.3516H663.763Z" fill="white"/>
<path d="M103.766 212.057H107.428C107.311 213.453 106.92 214.698 106.256 215.792C105.592 216.876 104.659 217.73 103.458 218.355C102.257 218.98 100.797 219.293 99.0781 219.293C97.7598 219.293 96.5732 219.059 95.5186 218.59C94.4639 218.111 93.5605 217.438 92.8086 216.568C92.0566 215.689 91.4805 214.63 91.0801 213.39C90.6895 212.149 90.4941 210.763 90.4941 209.229V207.457C90.4941 205.924 90.6943 204.537 91.0947 203.297C91.5049 202.057 92.0908 200.997 92.8525 200.118C93.6143 199.229 94.5273 198.551 95.5918 198.082C96.666 197.613 97.8721 197.379 99.21 197.379C100.909 197.379 102.345 197.691 103.517 198.316C104.688 198.941 105.597 199.806 106.241 200.909C106.896 202.013 107.296 203.277 107.442 204.703H103.78C103.683 203.785 103.468 202.999 103.136 202.345C102.813 201.69 102.335 201.192 101.7 200.851C101.065 200.499 100.235 200.323 99.21 200.323C98.3701 200.323 97.6377 200.479 97.0127 200.792C96.3877 201.104 95.8652 201.563 95.4453 202.169C95.0254 202.774 94.708 203.521 94.4932 204.41C94.2881 205.289 94.1855 206.295 94.1855 207.428V209.229C94.1855 210.304 94.2783 211.28 94.4639 212.159C94.6592 213.028 94.9521 213.775 95.3428 214.4C95.7432 215.025 96.251 215.509 96.8662 215.851C97.4814 216.192 98.2188 216.363 99.0781 216.363C100.123 216.363 100.968 216.197 101.612 215.865C102.267 215.533 102.76 215.05 103.092 214.415C103.434 213.771 103.658 212.984 103.766 212.057ZM119.073 200.514L112.701 219H108.849L116.876 197.672H119.337L119.073 200.514ZM124.405 219L118.019 200.514L117.74 197.672H120.216L128.272 219H124.405ZM124.098 211.09V214.005H112.496V211.09H124.098ZM136.856 219H132.301L132.33 216.085H136.856C138.175 216.085 139.278 215.797 140.167 215.221C141.065 214.645 141.739 213.819 142.188 212.745C142.647 211.671 142.877 210.392 142.877 208.907V207.75C142.877 206.598 142.745 205.577 142.481 204.688C142.228 203.8 141.847 203.053 141.339 202.447C140.841 201.842 140.226 201.383 139.493 201.07C138.771 200.758 137.936 200.602 136.988 200.602H132.213V197.672H136.988C138.404 197.672 139.698 197.911 140.87 198.39C142.042 198.858 143.053 199.537 143.902 200.426C144.762 201.314 145.421 202.379 145.88 203.619C146.339 204.859 146.568 206.246 146.568 207.779V208.907C146.568 210.44 146.339 211.827 145.88 213.067C145.421 214.308 144.762 215.372 143.902 216.261C143.043 217.14 142.018 217.818 140.826 218.297C139.645 218.766 138.321 219 136.856 219ZM134.337 197.672V219H130.66V197.672H134.337ZM158.243 200.514L151.871 219H148.019L156.046 197.672H158.507L158.243 200.514ZM163.575 219L157.188 200.514L156.91 197.672H159.386L167.442 219H163.575ZM163.268 211.09V214.005H151.666V211.09H163.268ZM185.401 211.046H179.85V208.131H185.401C186.368 208.131 187.149 207.975 187.745 207.662C188.341 207.35 188.775 206.92 189.049 206.373C189.332 205.816 189.474 205.182 189.474 204.469C189.474 203.795 189.332 203.165 189.049 202.579C188.775 201.983 188.341 201.505 187.745 201.144C187.149 200.782 186.368 200.602 185.401 200.602H180.978V219H177.301V197.672H185.401C187.052 197.672 188.453 197.965 189.605 198.551C190.768 199.127 191.651 199.928 192.257 200.953C192.862 201.969 193.165 203.131 193.165 204.439C193.165 205.816 192.862 206.998 192.257 207.984C191.651 208.971 190.768 209.728 189.605 210.255C188.453 210.782 187.052 211.046 185.401 211.046ZM200.387 197.672V219H196.71V197.672H200.387ZM218.917 216.085V219H207.594V216.085H218.917ZM208.634 197.672V219H204.957V197.672H208.634ZM217.438 206.578V209.449H207.594V206.578H217.438ZM218.844 197.672V200.602H207.594V197.672H218.844ZM236.832 216.085V219H222.022V216.085H236.832ZM236.495 199.942L223.385 219H220.924V216.671L234.078 197.672H236.495V199.942ZM235.133 197.672V200.602H221.012V197.672H235.133ZM248.536 200.514L242.164 219H238.312L246.339 197.672H248.8L248.536 200.514ZM253.868 219L247.481 200.514L247.203 197.672H249.679L257.735 219H253.868ZM253.561 211.09V214.005H241.959V211.09H253.561ZM280.191 212.057H283.854C283.736 213.453 283.346 214.698 282.682 215.792C282.018 216.876 281.085 217.73 279.884 218.355C278.683 218.98 277.223 219.293 275.504 219.293C274.186 219.293 272.999 219.059 271.944 218.59C270.89 218.111 269.986 217.438 269.234 216.568C268.482 215.689 267.906 214.63 267.506 213.39C267.115 212.149 266.92 210.763 266.92 209.229V207.457C266.92 205.924 267.12 204.537 267.521 203.297C267.931 202.057 268.517 200.997 269.278 200.118C270.04 199.229 270.953 198.551 272.018 198.082C273.092 197.613 274.298 197.379 275.636 197.379C277.335 197.379 278.771 197.691 279.942 198.316C281.114 198.941 282.022 199.806 282.667 200.909C283.321 202.013 283.722 203.277 283.868 204.703H280.206C280.108 203.785 279.894 202.999 279.562 202.345C279.239 201.69 278.761 201.192 278.126 200.851C277.491 200.499 276.661 200.323 275.636 200.323C274.796 200.323 274.063 200.479 273.438 200.792C272.813 201.104 272.291 201.563 271.871 202.169C271.451 202.774 271.134 203.521 270.919 204.41C270.714 205.289 270.611 206.295 270.611 207.428V209.229C270.611 210.304 270.704 211.28 270.89 212.159C271.085 213.028 271.378 213.775 271.769 214.4C272.169 215.025 272.677 215.509 273.292 215.851C273.907 216.192 274.645 216.363 275.504 216.363C276.549 216.363 277.394 216.197 278.038 215.865C278.692 215.533 279.186 215.05 279.518 214.415C279.859 213.771 280.084 212.984 280.191 212.057ZM299.161 197.672H302.823V211.925C302.823 213.546 302.472 214.903 301.769 215.997C301.065 217.091 300.108 217.916 298.897 218.473C297.696 219.02 296.354 219.293 294.869 219.293C293.336 219.293 291.969 219.02 290.768 218.473C289.566 217.916 288.619 217.091 287.926 215.997C287.242 214.903 286.9 213.546 286.9 211.925V197.672H290.562V211.925C290.562 212.95 290.738 213.795 291.09 214.459C291.441 215.113 291.939 215.597 292.584 215.909C293.229 216.222 293.99 216.378 294.869 216.378C295.748 216.378 296.505 216.222 297.14 215.909C297.784 215.597 298.282 215.113 298.634 214.459C298.985 213.795 299.161 212.95 299.161 211.925V197.672ZM320.782 216.085V219H309.459V216.085H320.782ZM310.499 197.672V219H306.822V197.672H310.499ZM319.303 206.578V209.449H309.459V206.578H319.303ZM320.709 197.672V200.602H309.459V197.672H320.709ZM340.704 197.672V219H337.027L327.462 203.722V219H323.785V197.672H327.462L337.057 212.979V197.672H340.704ZM353.419 197.672V219H349.771V197.672H353.419ZM360.113 197.672V200.602H343.136V197.672H360.113ZM369.825 200.514L363.453 219H359.601L367.628 197.672H370.089L369.825 200.514ZM375.157 219L368.771 200.514L368.492 197.672H370.968L379.024 219H375.157ZM374.85 211.09V214.005H363.248V211.09H374.85Z" fill="#813030"/>
<rect x="89" y="377" width="958" height="41" rx="20" fill="white"/>
<rect x="89" y="469" width="958" height="41" rx="20" fill="white"/>
</svg>
