<svg width="150" height="150" viewBox="0 0 150 150" fill="none" xmlns="http://www.w3.org/2000/svg">
<path d="M133.913 69.3438L27.6632 19.3438C26.5933 18.8404 25.4026 18.6508 24.2292 18.797C23.0559 18.9432 21.9481 19.4193 21.0345 20.17C20.1209 20.9206 19.439 21.915 19.0679 23.0377C18.6968 24.1604 18.6519 25.3653 18.9382 26.5126L26.5132 56.8188L75.0007 75.0001L26.5132 93.1813L18.9382 123.488C18.6465 124.636 18.6877 125.843 19.057 126.969C19.4264 128.094 20.1086 129.091 21.0238 129.843C21.9391 130.595 23.0495 131.071 24.2253 131.215C25.4011 131.359 26.5935 131.165 27.6632 130.656L133.913 80.6563C134.987 80.1516 135.895 79.3517 136.531 78.3501C137.167 77.3484 137.504 76.1865 137.504 75.0001C137.504 73.8136 137.167 72.6517 136.531 71.6501C135.895 70.6485 134.987 69.8485 133.913 69.3438Z" fill="white"/>
</svg>
