<svg width="1272" height="686" viewBox="0 0 1272 686" fill="none" xmlns="http://www.w3.org/2000/svg">
<rect width="1272" height="686" rx="30" fill="#A69205"/>
<rect x="105" y="377" width="958" height="41" rx="20" fill="white"/>
<rect x="105" y="469" width="958" height="41" rx="20" fill="white"/>
<rect width="25.2167" height="87.5211" transform="matrix(0.999514 0.0311645 -0.376237 0.926523 137.93 83)" fill="#822727"/>
<rect width="25.6752" height="87.0751" transform="matrix(0.999158 0.0410261 -0.392892 0.919584 183.211 84)" fill="#822727"/>
<path d="M249.663 103.682L233.615 165H217.773L241.101 90.3516H250.996L249.663 103.682ZM262.326 165L246.176 103.682L244.689 90.3516H254.738L278.271 165H262.326ZM262.89 137.161V149.619H229.206V137.161H262.89ZM318.005 90.3516H332.976V141.621C332.976 147.363 331.916 152.046 329.797 155.669C327.712 159.258 324.824 161.89 321.132 163.564C317.441 165.205 313.22 166.025 308.469 166.025C303.684 166.025 299.428 165.205 295.703 163.564C291.977 161.89 289.072 159.258 286.987 155.669C284.936 152.046 283.911 147.363 283.911 141.621V90.3516H298.881V141.621C298.881 144.868 299.24 147.363 299.958 149.106C300.71 150.85 301.787 152.046 303.188 152.695C304.624 153.311 306.384 153.618 308.469 153.618C310.588 153.618 312.331 153.311 313.698 152.695C315.1 152.046 316.159 150.85 316.877 149.106C317.629 147.363 318.005 144.868 318.005 141.621V90.3516ZM374.196 90.3516V165H359.277V90.3516H374.196ZM392.756 90.3516V102.81H341.076V90.3516H392.756ZM452.485 121.882V134.341C452.485 139.604 451.835 144.219 450.537 148.184C449.272 152.114 447.46 155.413 445.102 158.079C442.778 160.71 439.958 162.693 436.643 164.026C433.361 165.359 429.721 166.025 425.722 166.025C421.723 166.025 418.066 165.359 414.75 164.026C411.469 162.693 408.632 160.71 406.24 158.079C403.881 155.413 402.053 152.114 400.754 148.184C399.455 144.219 398.806 139.604 398.806 134.341V121.882C398.806 116.482 399.438 111.765 400.703 107.732C401.967 103.665 403.796 100.281 406.188 97.5806C408.581 94.8462 411.418 92.7954 414.699 91.4282C417.98 90.0269 421.621 89.3262 425.62 89.3262C429.619 89.3262 433.259 90.0269 436.54 91.4282C439.821 92.7954 442.658 94.8462 445.051 97.5806C447.443 100.281 449.272 103.665 450.537 107.732C451.835 111.765 452.485 116.482 452.485 121.882ZM437.565 134.341V121.78C437.565 118.225 437.309 115.2 436.796 112.705C436.284 110.176 435.515 108.108 434.489 106.501C433.464 104.895 432.216 103.716 430.747 102.964C429.277 102.212 427.568 101.836 425.62 101.836C423.671 101.836 421.945 102.212 420.441 102.964C418.972 103.716 417.724 104.895 416.699 106.501C415.708 108.108 414.956 110.176 414.443 112.705C413.964 115.2 413.725 118.225 413.725 121.78V134.341C413.725 137.759 413.981 140.681 414.494 143.108C415.007 145.535 415.776 147.517 416.801 149.055C417.827 150.593 419.074 151.738 420.544 152.49C422.048 153.208 423.774 153.567 425.722 153.567C427.636 153.567 429.328 153.208 430.798 152.49C432.302 151.738 433.549 150.593 434.541 149.055C435.532 147.517 436.284 145.535 436.796 143.108C437.309 140.681 437.565 137.759 437.565 134.341ZM463.457 90.3516H487.399C492.39 90.3516 496.645 91.2061 500.166 92.915C503.686 94.624 506.386 97.1533 508.266 100.503C510.146 103.853 511.086 107.988 511.086 112.91C511.086 116.943 510.539 120.396 509.445 123.267C508.352 126.104 506.796 128.479 504.78 130.393C502.763 132.273 500.354 133.777 497.551 134.905L492.988 137.622H473.557L473.505 125.164H486.989C489.04 125.164 490.732 124.719 492.065 123.831C493.432 122.908 494.44 121.626 495.09 119.985C495.773 118.311 496.115 116.362 496.115 114.141C496.115 111.782 495.808 109.766 495.192 108.091C494.611 106.382 493.671 105.083 492.373 104.194C491.108 103.271 489.45 102.81 487.399 102.81H478.479V165H463.457V90.3516ZM497.346 165L483.657 131.726L499.396 131.675L513.393 164.282V165H497.346ZM564.355 152.593V165H531.901V152.593H564.355ZM536.567 90.3516V165H521.545V90.3516H536.567ZM559.997 120.601V132.649H531.901V120.601H559.997ZM564.252 90.3516V102.81H531.901V90.3516H564.252ZM608.703 140.134H623.623C623.417 145.74 622.29 150.474 620.239 154.336C618.188 158.164 615.266 161.069 611.472 163.052C607.712 165.034 603.166 166.025 597.834 166.025C593.698 166.025 590.024 165.342 586.811 163.975C583.598 162.573 580.864 160.522 578.608 157.822C576.352 155.122 574.643 151.79 573.481 147.825C572.353 143.826 571.789 139.229 571.789 134.033V121.37C571.789 116.174 572.387 111.577 573.583 107.578C574.814 103.579 576.557 100.229 578.813 97.5293C581.103 94.7949 583.854 92.7441 587.067 91.377C590.314 89.9756 593.972 89.2749 598.039 89.2749C603.474 89.2749 608.02 90.3003 611.677 92.3511C615.334 94.4019 618.154 97.3926 620.136 101.323C622.153 105.22 623.366 109.988 623.776 115.627H608.806C608.703 112.073 608.293 109.287 607.575 107.271C606.892 105.22 605.798 103.784 604.294 102.964C602.79 102.109 600.705 101.682 598.039 101.682C596.057 101.682 594.348 102.041 592.912 102.759C591.477 103.442 590.297 104.553 589.375 106.091C588.452 107.629 587.768 109.646 587.324 112.141C586.914 114.636 586.708 117.678 586.708 121.267V134.033C586.708 137.554 586.896 140.562 587.272 143.057C587.648 145.518 588.247 147.534 589.067 149.106C589.887 150.679 590.998 151.824 592.399 152.542C593.835 153.259 595.646 153.618 597.834 153.618C600.363 153.618 602.397 153.242 603.935 152.49C605.507 151.738 606.669 150.388 607.421 148.44C608.173 146.492 608.601 143.723 608.703 140.134ZM661.203 90.3516V165H646.284V90.3516H661.203ZM679.763 90.3516V102.81H628.083V90.3516H679.763Z" fill="white"/>
<path d="M119.766 212.057H123.428C123.311 213.453 122.92 214.698 122.256 215.792C121.592 216.876 120.659 217.73 119.458 218.355C118.257 218.98 116.797 219.293 115.078 219.293C113.76 219.293 112.573 219.059 111.519 218.59C110.464 218.111 109.561 217.438 108.809 216.568C108.057 215.689 107.48 214.63 107.08 213.39C106.689 212.149 106.494 210.763 106.494 209.229V207.457C106.494 205.924 106.694 204.537 107.095 203.297C107.505 202.057 108.091 200.997 108.853 200.118C109.614 199.229 110.527 198.551 111.592 198.082C112.666 197.613 113.872 197.379 115.21 197.379C116.909 197.379 118.345 197.691 119.517 198.316C120.688 198.941 121.597 199.806 122.241 200.909C122.896 202.013 123.296 203.277 123.442 204.703H119.78C119.683 203.785 119.468 202.999 119.136 202.345C118.813 201.69 118.335 201.192 117.7 200.851C117.065 200.499 116.235 200.323 115.21 200.323C114.37 200.323 113.638 200.479 113.013 200.792C112.388 201.104 111.865 201.563 111.445 202.169C111.025 202.774 110.708 203.521 110.493 204.41C110.288 205.289 110.186 206.295 110.186 207.428V209.229C110.186 210.304 110.278 211.28 110.464 212.159C110.659 213.028 110.952 213.775 111.343 214.4C111.743 215.025 112.251 215.509 112.866 215.851C113.481 216.192 114.219 216.363 115.078 216.363C116.123 216.363 116.968 216.197 117.612 215.865C118.267 215.533 118.76 215.05 119.092 214.415C119.434 213.771 119.658 212.984 119.766 212.057ZM135.073 200.514L128.701 219H124.849L132.876 197.672H135.337L135.073 200.514ZM140.405 219L134.019 200.514L133.74 197.672H136.216L144.272 219H140.405ZM140.098 211.09V214.005H128.496V211.09H140.098ZM152.856 219H148.301L148.33 216.085H152.856C154.175 216.085 155.278 215.797 156.167 215.221C157.065 214.645 157.739 213.819 158.188 212.745C158.647 211.671 158.877 210.392 158.877 208.907V207.75C158.877 206.598 158.745 205.577 158.481 204.688C158.228 203.8 157.847 203.053 157.339 202.447C156.841 201.842 156.226 201.383 155.493 201.07C154.771 200.758 153.936 200.602 152.988 200.602H148.213V197.672H152.988C154.404 197.672 155.698 197.911 156.87 198.39C158.042 198.858 159.053 199.537 159.902 200.426C160.762 201.314 161.421 202.379 161.88 203.619C162.339 204.859 162.568 206.246 162.568 207.779V208.907C162.568 210.44 162.339 211.827 161.88 213.067C161.421 214.308 160.762 215.372 159.902 216.261C159.043 217.14 158.018 217.818 156.826 218.297C155.645 218.766 154.321 219 152.856 219ZM150.337 197.672V219H146.66V197.672H150.337ZM174.243 200.514L167.871 219H164.019L172.046 197.672H174.507L174.243 200.514ZM179.575 219L173.188 200.514L172.91 197.672H175.386L183.442 219H179.575ZM179.268 211.09V214.005H167.666V211.09H179.268ZM201.401 211.046H195.85V208.131H201.401C202.368 208.131 203.149 207.975 203.745 207.662C204.341 207.35 204.775 206.92 205.049 206.373C205.332 205.816 205.474 205.182 205.474 204.469C205.474 203.795 205.332 203.165 205.049 202.579C204.775 201.983 204.341 201.505 203.745 201.144C203.149 200.782 202.368 200.602 201.401 200.602H196.978V219H193.301V197.672H201.401C203.052 197.672 204.453 197.965 205.605 198.551C206.768 199.127 207.651 199.928 208.257 200.953C208.862 201.969 209.165 203.131 209.165 204.439C209.165 205.816 208.862 206.998 208.257 207.984C207.651 208.971 206.768 209.728 205.605 210.255C204.453 210.782 203.052 211.046 201.401 211.046ZM216.387 197.672V219H212.71V197.672H216.387ZM234.917 216.085V219H223.594V216.085H234.917ZM224.634 197.672V219H220.957V197.672H224.634ZM233.438 206.578V209.449H223.594V206.578H233.438ZM234.844 197.672V200.602H223.594V197.672H234.844ZM252.832 216.085V219H238.022V216.085H252.832ZM252.495 199.942L239.385 219H236.924V216.671L250.078 197.672H252.495V199.942ZM251.133 197.672V200.602H237.012V197.672H251.133ZM264.536 200.514L258.164 219H254.312L262.339 197.672H264.8L264.536 200.514ZM269.868 219L263.481 200.514L263.203 197.672H265.679L273.735 219H269.868ZM269.561 211.09V214.005H257.959V211.09H269.561ZM296.191 212.057H299.854C299.736 213.453 299.346 214.698 298.682 215.792C298.018 216.876 297.085 217.73 295.884 218.355C294.683 218.98 293.223 219.293 291.504 219.293C290.186 219.293 288.999 219.059 287.944 218.59C286.89 218.111 285.986 217.438 285.234 216.568C284.482 215.689 283.906 214.63 283.506 213.39C283.115 212.149 282.92 210.763 282.92 209.229V207.457C282.92 205.924 283.12 204.537 283.521 203.297C283.931 202.057 284.517 200.997 285.278 200.118C286.04 199.229 286.953 198.551 288.018 198.082C289.092 197.613 290.298 197.379 291.636 197.379C293.335 197.379 294.771 197.691 295.942 198.316C297.114 198.941 298.022 199.806 298.667 200.909C299.321 202.013 299.722 203.277 299.868 204.703H296.206C296.108 203.785 295.894 202.999 295.562 202.345C295.239 201.69 294.761 201.192 294.126 200.851C293.491 200.499 292.661 200.323 291.636 200.323C290.796 200.323 290.063 200.479 289.438 200.792C288.813 201.104 288.291 201.563 287.871 202.169C287.451 202.774 287.134 203.521 286.919 204.41C286.714 205.289 286.611 206.295 286.611 207.428V209.229C286.611 210.304 286.704 211.28 286.89 212.159C287.085 213.028 287.378 213.775 287.769 214.4C288.169 215.025 288.677 215.509 289.292 215.851C289.907 216.192 290.645 216.363 291.504 216.363C292.549 216.363 293.394 216.197 294.038 215.865C294.692 215.533 295.186 215.05 295.518 214.415C295.859 213.771 296.084 212.984 296.191 212.057ZM315.161 197.672H318.823V211.925C318.823 213.546 318.472 214.903 317.769 215.997C317.065 217.091 316.108 217.916 314.897 218.473C313.696 219.02 312.354 219.293 310.869 219.293C309.336 219.293 307.969 219.02 306.768 218.473C305.566 217.916 304.619 217.091 303.926 215.997C303.242 214.903 302.9 213.546 302.9 211.925V197.672H306.562V211.925C306.562 212.95 306.738 213.795 307.09 214.459C307.441 215.113 307.939 215.597 308.584 215.909C309.229 216.222 309.99 216.378 310.869 216.378C311.748 216.378 312.505 216.222 313.14 215.909C313.784 215.597 314.282 215.113 314.634 214.459C314.985 213.795 315.161 212.95 315.161 211.925V197.672ZM336.782 216.085V219H325.459V216.085H336.782ZM326.499 197.672V219H322.822V197.672H326.499ZM335.303 206.578V209.449H325.459V206.578H335.303ZM336.709 197.672V200.602H325.459V197.672H336.709ZM356.704 197.672V219H353.027L343.462 203.722V219H339.785V197.672H343.462L353.057 212.979V197.672H356.704ZM369.419 197.672V219H365.771V197.672H369.419ZM376.113 197.672V200.602H359.136V197.672H376.113ZM385.825 200.514L379.453 219H375.601L383.628 197.672H386.089L385.825 200.514ZM391.157 219L384.771 200.514L384.492 197.672H386.968L395.024 219H391.157ZM390.85 211.09V214.005H379.248V211.09H390.85Z" fill="#813030"/>
</svg>
