<svg width="120" height="120" viewBox="0 0 120 120" fill="none" xmlns="http://www.w3.org/2000/svg">
<path d="M104.734 41.5253C104.684 37.7384 103.975 33.9892 102.639 30.4453C101.481 27.456 99.7121 24.7413 97.4452 22.4744C95.1784 20.2076 92.4636 18.4385 89.4744 17.2803C85.9761 15.9671 82.2803 15.257 78.5444 15.1803C73.7344 14.9653 72.2094 14.9053 59.9994 14.9053C47.7894 14.9053 46.2244 14.9053 41.4494 15.1803C37.7152 15.2575 34.0211 15.9676 30.5244 17.2803C27.5347 18.4377 24.8195 20.2065 22.5525 22.4734C20.2856 24.7404 18.5168 27.4556 17.3594 30.4453C16.0435 33.9409 15.335 37.6358 15.2644 41.3703C15.0494 46.1853 14.9844 47.7103 14.9844 59.9203C14.9844 72.1303 14.9844 73.6903 15.2644 78.4703C15.3394 82.2103 16.0444 85.9003 17.3594 89.4053C18.5188 92.3941 20.2889 95.1082 22.5566 97.3741C24.8243 99.6401 27.5397 101.408 30.5294 102.565C34.0165 103.931 37.7112 104.692 41.4544 104.815C46.2694 105.03 47.7944 105.095 60.0044 105.095C72.2144 105.095 73.7794 105.095 78.5544 104.815C82.2901 104.742 85.9862 104.033 89.4844 102.72C92.4728 101.561 95.1869 99.7912 97.4536 97.5245C99.7202 95.2578 101.49 92.5437 102.649 89.5553C103.964 86.0553 104.669 82.3653 104.744 78.6203C104.959 73.8103 105.024 72.2853 105.024 60.0703C105.014 47.8603 105.014 46.3103 104.734 41.5253ZM59.9694 83.0103C47.1994 83.0103 36.8544 72.6653 36.8544 59.8953C36.8544 47.1253 47.1994 36.7803 59.9694 36.7803C66.0999 36.7803 71.9792 39.2156 76.3141 43.5505C80.6491 47.8854 83.0844 53.7648 83.0844 59.8953C83.0844 66.0258 80.6491 71.9051 76.3141 76.24C71.9792 80.575 66.0999 83.0103 59.9694 83.0103ZM84.0044 41.3153C83.2964 41.3159 82.5952 41.177 81.9409 40.9063C81.2867 40.6357 80.6922 40.2387 80.1916 39.738C79.691 39.2374 79.294 38.643 79.0233 37.9887C78.7527 37.3345 78.6137 36.6333 78.6144 35.9253C78.6144 35.2178 78.7537 34.5172 79.0245 33.8636C79.2952 33.2099 79.6921 32.616 80.1923 32.1157C80.6926 31.6155 81.2865 31.2186 81.9402 30.9479C82.5938 30.6771 83.2944 30.5378 84.0019 30.5378C84.7094 30.5378 85.4099 30.6771 86.0636 30.9479C86.7172 31.2186 87.3111 31.6155 87.8114 32.1157C88.3117 32.616 88.7085 33.2099 88.9793 33.8636C89.25 34.5172 89.3894 35.2178 89.3894 35.9253C89.3894 38.9053 86.9794 41.3153 84.0044 41.3153Z" fill="white"/>
<path d="M59.9681 74.9099C68.2607 74.9099 74.9831 68.1874 74.9831 59.8949C74.9831 51.6023 68.2607 44.8799 59.9681 44.8799C51.6756 44.8799 44.9531 51.6023 44.9531 59.8949C44.9531 68.1874 51.6756 74.9099 59.9681 74.9099Z" fill="white"/>
</svg>
