<svg width="120" height="120" viewBox="0 0 120 120" fill="none" xmlns="http://www.w3.org/2000/svg">
<path d="M98.165 39.9847C98.23 40.8597 98.23 41.7297 98.23 42.5997C98.23 69.2247 77.965 99.9047 40.93 99.9047C29.52 99.9047 18.92 96.5997 10 90.8597C11.62 91.0447 13.18 91.1097 14.865 91.1097C23.93 91.1316 32.7382 88.1004 39.87 82.5047C35.6671 82.4287 31.5929 81.042 28.2162 78.5384C24.8395 76.0348 22.3289 72.5392 21.035 68.5397C22.28 68.7247 23.53 68.8497 24.84 68.8497C26.645 68.8497 28.46 68.5997 30.145 68.1647C25.5838 67.2438 21.4824 64.7715 18.5381 61.1682C15.5938 57.5648 13.9885 53.053 13.995 48.3997V48.1497C16.68 49.6447 19.795 50.5797 23.095 50.7047C20.3304 48.8677 18.0636 46.3748 16.4967 43.4487C14.9298 40.5225 14.1116 37.254 14.115 33.9347C14.115 30.1947 15.11 26.7647 16.855 23.7747C21.9157 29.9998 28.2275 35.0925 35.3817 38.723C42.5358 42.3535 50.3728 44.4408 58.385 44.8497C58.075 43.3497 57.885 41.7947 57.885 40.2347C57.8837 37.5895 58.4037 34.97 59.4154 32.5259C60.4271 30.0818 61.9105 27.8611 63.7809 25.9907C65.6514 24.1202 67.8721 22.6368 70.3162 21.6251C72.7603 20.6135 75.3798 20.0934 78.025 20.0947C83.825 20.0947 89.06 22.5247 92.74 26.4547C97.2489 25.5828 101.573 23.9368 105.52 21.5897C104.017 26.2438 100.869 30.1903 96.665 32.6897C100.664 32.2336 104.572 31.182 108.26 29.5697C105.506 33.5852 102.093 37.1065 98.165 39.9847Z" fill="white"/>
</svg>
